<svg width="40" height="40" viewBox="0 0 40 40" fill="none" xmlns="http://www.w3.org/2000/svg">
<path d="M19.9984 36.6637C18.7168 36.6637 17.4368 36.177 16.4584 35.2054L15.2418 33.9887C14.7701 33.5187 14.1384 33.2587 13.4684 33.257H11.7568C8.99011 33.257 6.73844 31.0054 6.73844 28.2387L6.73844 26.5254C6.73678 25.857 6.47678 25.2254 6.00511 24.7504L4.80844 23.5554C2.84844 21.607 2.84011 18.422 4.79011 16.4604L6.00678 15.242C6.47678 14.7704 6.73678 14.1387 6.73844 13.4687V11.7587C6.73844 8.99037 8.99011 6.7387 11.7568 6.7387H13.4701C14.1384 6.7387 14.7684 6.4787 15.2434 6.0037L16.4418 4.8087C18.3901 2.8487 21.5734 2.8387 23.5368 4.79037L24.7534 6.00704C25.2268 6.4787 25.8568 6.7387 26.5251 6.7387L28.2384 6.7387C31.0051 6.7387 33.2568 8.99037 33.2568 11.7587V13.4704C33.2584 14.1387 33.5184 14.7704 33.9901 15.2454L35.1868 16.442C36.1351 17.3854 36.6601 18.642 36.6651 19.9837C36.6684 21.317 36.1551 22.572 35.2201 23.5204C35.2034 23.537 35.1884 23.5554 35.1718 23.5704L33.9884 24.7537C33.5184 25.2254 33.2584 25.857 33.2568 26.527V28.2387C33.2568 31.0054 31.0051 33.257 28.2384 33.257H26.5251C25.8568 33.2587 25.2251 33.5187 24.7518 33.9904L23.5534 35.187C22.5768 36.1704 21.2868 36.6637 19.9984 36.6637" fill="#9F7AEA"/>
<path fill-rule="evenodd" clip-rule="evenodd" d="M16.7381 16.7515C16.4631 17.0265 16.1064 17.1748 15.7114 17.1748C15.3414 17.1748 14.9781 17.0232 14.6864 16.7498C14.4097 16.4748 14.2531 16.0982 14.2531 15.7165C14.2531 15.3532 14.4064 14.9798 14.6764 14.6915C14.8247 14.5415 15.0014 14.4282 15.1781 14.3682C15.6814 14.1382 16.3497 14.2732 16.7464 14.6898C16.8881 14.8315 16.9964 14.9865 17.0681 15.1482C17.1464 15.3215 17.1864 15.5182 17.1864 15.7165C17.1864 16.1132 17.0281 16.4815 16.7381 16.7515ZM25.3176 14.683C24.7492 14.1163 23.8242 14.1163 23.2559 14.683L14.6892 23.2497C14.1209 23.818 14.1209 24.743 14.6892 25.313C14.9659 25.588 15.3309 25.7397 15.7209 25.7397C16.1109 25.7397 16.4759 25.588 16.7509 25.313L25.3176 16.7463C25.8859 16.1763 25.8859 15.253 25.3176 14.683ZM24.8431 22.9398C24.3031 22.7132 23.6631 22.8365 23.2364 23.2632C23.1481 23.3665 23.0231 23.5265 22.9381 23.7148C22.8481 23.9182 22.8364 24.1365 22.8364 24.2832C22.8364 24.4298 22.8481 24.6465 22.9381 24.8498C23.0214 25.0365 23.1214 25.1882 23.2531 25.3198C23.5547 25.5998 23.9047 25.7415 24.2947 25.7415C24.6647 25.7415 25.0281 25.5915 25.3264 25.3132C25.5914 25.0482 25.7364 24.6815 25.7364 24.2832C25.7364 23.8832 25.5914 23.5182 25.3247 23.2515C25.1781 23.1065 25.0014 22.9932 24.8431 22.9398Z" fill="white"/>
</svg>
