<svg width="40" height="40" viewBox="0 0 40 40" fill="none" xmlns="http://www.w3.org/2000/svg">
<path opacity="0.4" fill-rule="evenodd" clip-rule="evenodd" d="M9.85095 34.3142C9.85095 32.9142 10.9843 31.7809 12.3843 31.7809C13.7676 31.7809 14.901 32.9142 14.901 34.3142C14.901 35.6975 13.7676 36.8309 12.3843 36.8309C10.9843 36.8309 9.85095 35.6975 9.85095 34.3142ZM28.601 34.3142C28.601 32.9142 29.7343 31.7809 31.1343 31.7809C32.5176 31.7809 33.651 32.9142 33.651 34.3142C33.651 35.6975 32.5176 36.8309 31.1343 36.8309C29.7343 36.8309 28.601 35.6975 28.601 34.3142Z" fill="#9F7AEA"/>
<path fill-rule="evenodd" clip-rule="evenodd" d="M33.6513 10.5817C34.6679 10.5817 35.3346 10.9317 36.0013 11.6984C36.6679 12.465 36.7846 13.565 36.6346 14.5634L35.0513 25.4967C34.7513 27.5984 32.9513 29.1467 30.8346 29.1467H12.6513C10.4346 29.1467 8.60128 27.4467 8.41794 25.2484L6.88461 7.08002L4.36794 6.64669C3.70128 6.53002 3.23461 5.88002 3.35128 5.21336C3.46794 4.53002 4.11794 4.08002 4.80128 4.18002L8.77628 4.78002C9.34294 4.88169 9.75961 5.34669 9.80961 5.91336L10.1263 9.64669C10.1763 10.1817 10.6096 10.5817 11.1429 10.5817H33.6513ZM23.5513 19.2467H28.1679C28.8679 19.2467 29.4179 18.68 29.4179 17.9967C29.4179 17.2967 28.8679 16.7467 28.1679 16.7467H23.5513C22.8513 16.7467 22.3013 17.2967 22.3013 17.9967C22.3013 18.68 22.8513 19.2467 23.5513 19.2467Z" fill="#9F7AEA"/>
</svg>
