<svg width="40" height="40" viewBox="0 0 40 40" fill="none" xmlns="http://www.w3.org/2000/svg">
<path fill-rule="evenodd" clip-rule="evenodd" d="M36.6608 13.9585L29.603 13.9585C26.3186 13.9643 23.6578 16.5586 23.6519 19.7609C23.6474 22.9705 26.3112 25.5763 29.603 25.5807H36.6667V26.0906C36.6667 31.6893 33.2726 35 27.5289 35H12.4726C6.72745 35 3.33337 31.6893 3.33337 26.0906V13.8964C3.33337 8.2977 6.72745 5 12.4726 5L27.523 5C33.2667 5 36.6608 8.2977 36.6608 13.8964V13.9585ZM11.2326 13.9455H20.6326H20.6386H20.6504C21.3541 13.9427 21.923 13.3836 21.92 12.6961C21.9171 12.01 21.3423 11.4553 20.6386 11.4582H11.2326C10.5334 11.4611 9.96597 12.0143 9.963 12.6975C9.96004 13.3836 10.5289 13.9427 11.2326 13.9455Z" fill="#9F7AEA"/>
<path opacity="0.4" d="M26.7291 20.4944C27.0776 22.0798 28.4675 23.1951 30.0544 23.1661H35.4709C36.1312 23.1661 36.6667 22.6193 36.6667 21.9434V17.7242C36.6653 17.0497 36.1312 16.5015 35.4709 16.5H29.9269C28.1218 16.5058 26.6639 18.0041 26.6668 19.8505C26.6668 20.0666 26.688 20.2827 26.7291 20.4944" fill="#9F7AEA"/>
<ellipse cx="30" cy="19.8333" rx="1.66667" ry="1.66667" fill="#9F7AEA"/>
</svg>
