<svg width="145" height="28" viewBox="0 0 145 28" fill="none" xmlns="http://www.w3.org/2000/svg">
<path fill-rule="evenodd" clip-rule="evenodd" d="M17.7833 5.52716C17.7833 8.11832 19.8869 10.2189 22.4818 10.2189C22.7676 10.2175 23.0526 10.19 23.3333 10.1369V19.4384C23.3333 23.3515 21.0251 25.6667 17.1062 25.6667H8.57075C4.64159 25.6667 2.33333 23.3515 2.33333 19.4384V10.9155C2.33333 7.00228 4.64159 4.66667 8.57075 4.66667H17.8653C17.8102 4.95018 17.7827 5.23836 17.7833 5.52716ZM15.3416 17.3794L18.6758 13.0769V13.0564C18.9612 12.6729 18.8884 12.132 18.5116 11.8374C18.3293 11.6966 18.0976 11.6357 17.8694 11.6685C17.6413 11.7013 17.4362 11.8251 17.3011 12.0115L14.4901 15.6276L11.2894 13.1076C11.1066 12.9653 10.8742 12.9024 10.6444 12.9333C10.4147 12.9641 10.2071 13.086 10.0686 13.2715L6.62156 17.7174C6.5004 17.8684 6.43517 18.0566 6.4369 18.2501C6.41689 18.6412 6.66385 18.9964 7.03777 19.1144C7.41169 19.2325 7.81827 19.0835 8.02703 18.752L10.9098 15.0233L14.1106 17.533C14.2926 17.6798 14.5266 17.7463 14.7588 17.7173C14.991 17.6884 15.2014 17.5664 15.3416 17.3794Z" fill="#6B46C1"/>
<ellipse opacity="0.4" cx="22.75" cy="5.25" rx="2.91667" ry="2.91667" fill="#6B46C1"/>
<path d="M36 5.19728C36.4535 5.21542 37.034 5.23356 37.7415 5.2517C38.449 5.26984 39.1565 5.27891 39.8639 5.27891C40.7528 5.27891 41.5964 5.26984 42.3946 5.2517C43.1927 5.23356 43.7551 5.22449 44.0816 5.22449C46.2222 5.22449 47.8186 5.62358 48.8707 6.42177C49.941 7.21996 50.4762 8.2449 50.4762 9.4966C50.4762 10.1315 50.3039 10.7664 49.9592 11.4014C49.6327 12.0363 49.0975 12.6077 48.3537 13.1156C47.6281 13.6236 46.6757 14.0045 45.4966 14.2585V14.3129C47.093 14.4581 48.3537 14.7846 49.2789 15.2925C50.2222 15.7823 50.8934 16.3719 51.2925 17.0612C51.6916 17.7324 51.8912 18.4399 51.8912 19.1837C51.8912 20.2902 51.6009 21.2426 51.0204 22.0408C50.458 22.8209 49.6417 23.4195 48.5714 23.8367C47.5011 24.254 46.2132 24.4626 44.7075 24.4626C44.3084 24.4626 43.7007 24.4535 42.8844 24.4354C42.068 24.3991 41.0794 24.381 39.9184 24.381C39.1746 24.381 38.449 24.39 37.7415 24.4082C37.034 24.4082 36.4535 24.4263 36 24.4626V23.9184C36.5986 23.8821 37.0431 23.8095 37.3333 23.7007C37.6417 23.5918 37.8413 23.3741 37.932 23.0476C38.0408 22.7211 38.0952 22.2313 38.0952 21.5782V8.08163C38.0952 7.41043 38.0408 6.92064 37.932 6.61225C37.8413 6.28572 37.6417 6.06803 37.3333 5.95919C37.0431 5.8322 36.5986 5.75964 36 5.7415V5.19728ZM43.619 5.7415C42.8753 5.7415 42.3855 5.89569 42.1497 6.20408C41.932 6.51247 41.8231 7.13832 41.8231 8.08163V21.5782C41.8231 22.2132 41.8776 22.6939 41.9864 23.0204C42.0952 23.3469 42.2857 23.5646 42.5578 23.6735C42.8299 23.7823 43.229 23.8367 43.7551 23.8367C45.2426 23.8367 46.3129 23.4286 46.966 22.6122C47.6372 21.7778 47.9728 20.5986 47.9728 19.0748C47.9728 17.678 47.61 16.5986 46.8844 15.8367C46.1769 15.0748 44.9977 14.6939 43.3469 14.6939H40.8707C40.8707 14.6939 40.8707 14.6213 40.8707 14.4762C40.8707 14.3129 40.8707 14.2313 40.8707 14.2313H43.2109C44.1361 14.2313 44.8526 14.0317 45.3605 13.6327C45.8685 13.2154 46.2132 12.6712 46.3946 12C46.576 11.3107 46.6667 10.576 46.6667 9.79592C46.6667 8.45352 46.4308 7.44671 45.9592 6.77551C45.4875 6.08617 44.7075 5.7415 43.619 5.7415Z" fill="#1F173A"/>
<path d="M66.7013 10.0952V21.5238C66.7013 22.3401 66.8374 22.9478 67.1095 23.3469C67.3816 23.7279 67.8623 23.9184 68.5517 23.9184V24.4898C67.9893 24.4354 67.4269 24.4082 66.8646 24.4082C66.1934 24.4082 65.5494 24.4354 64.9326 24.4898C64.334 24.5442 63.7807 24.644 63.2727 24.7891V22.068C62.8192 23.0658 62.1934 23.7823 61.3952 24.2177C60.6152 24.6349 59.7716 24.8435 58.8646 24.8435C58.1571 24.8435 57.5585 24.7438 57.0687 24.5442C56.597 24.3628 56.2161 24.1088 55.9258 23.7823C55.6174 23.4376 55.3997 22.9841 55.2727 22.4218C55.1458 21.8594 55.0823 21.1338 55.0823 20.2449V13.3605C55.0823 12.5442 54.9462 11.9456 54.6741 11.5646C54.4201 11.1655 53.9394 10.966 53.2319 10.966V10.3946C53.8124 10.449 54.3748 10.4762 54.919 10.4762C55.5902 10.4762 56.2251 10.449 56.8238 10.3946C57.4405 10.322 58.0029 10.2222 58.5108 10.0952V21.1973C58.5108 21.6871 58.5471 22.1225 58.6197 22.5034C58.7104 22.8844 58.8827 23.1927 59.1367 23.4286C59.3907 23.6463 59.7716 23.7551 60.2795 23.7551C60.8419 23.7551 61.3498 23.5918 61.8034 23.2653C62.2569 22.9388 62.6106 22.4943 62.8646 21.932C63.1367 21.3696 63.2727 20.7347 63.2727 20.0272V13.3605C63.2727 12.5442 63.1367 11.9456 62.8646 11.5646C62.6106 11.1655 62.1299 10.966 61.4224 10.966V10.3946C62.0029 10.449 62.5653 10.4762 63.1095 10.4762C63.7807 10.4762 64.4156 10.449 65.0142 10.3946C65.631 10.322 66.1934 10.2222 66.7013 10.0952Z" fill="#1F173A"/>
<path d="M74.9919 10.0136C75.7538 10.0136 76.4069 10.1225 76.9511 10.3401C77.4953 10.5578 77.8944 10.7483 78.1484 10.9116C78.7652 11.3651 79.137 11.0748 79.264 10.0408H79.8627C79.8264 10.5669 79.7992 11.1927 79.781 11.9184C79.7629 12.6259 79.7538 13.5782 79.7538 14.7755H79.1552C79.0645 14.1043 78.8921 13.4512 78.6382 12.8163C78.3842 12.1814 78.0123 11.6553 77.5225 11.2381C77.0327 10.8027 76.3887 10.585 75.5906 10.585C75.0282 10.585 74.5565 10.7483 74.1756 11.0748C73.8128 11.4014 73.6314 11.8639 73.6314 12.4626C73.6314 13.0068 73.7946 13.4875 74.1212 13.9048C74.4477 14.3039 74.8649 14.6848 75.3729 15.0476C75.8989 15.3923 76.4432 15.7732 77.0055 16.1905C77.6586 16.6259 78.2391 17.0703 78.747 17.5238C79.255 17.9592 79.6631 18.449 79.9715 18.9932C80.2799 19.5193 80.4341 20.1451 80.4341 20.8707C80.4341 21.7052 80.1983 22.4218 79.7266 23.0204C79.2731 23.6009 78.6654 24.0544 77.9035 24.381C77.1597 24.6893 76.3343 24.8435 75.4273 24.8435C74.9375 24.8435 74.4931 24.7982 74.094 24.7075C73.6949 24.6168 73.3411 24.4989 73.0327 24.3537C72.7969 24.2268 72.5792 24.1088 72.3797 24C72.1983 23.8912 72.0078 23.8005 71.8082 23.7279C71.6268 23.6372 71.4636 23.6735 71.3185 23.8367C71.1915 24 71.0917 24.2721 71.0191 24.6531H70.4205C70.4568 24.0726 70.484 23.3651 70.5021 22.5306C70.5203 21.6961 70.5293 20.5896 70.5293 19.2109H71.128C71.255 20.2086 71.4454 21.0884 71.6994 21.8503C71.9715 22.5941 72.3615 23.1837 72.8695 23.619C73.3774 24.0363 74.0305 24.2449 74.8287 24.2449C75.1733 24.2449 75.4999 24.1723 75.8082 24.0272C76.1348 23.8821 76.3978 23.6553 76.5974 23.3469C76.815 23.0385 76.9239 22.6213 76.9239 22.0952C76.9239 21.2971 76.6518 20.6349 76.1076 20.1088C75.5633 19.5828 74.8831 19.0204 74.0667 18.4218C73.45 17.9683 72.8695 17.5238 72.3253 17.0884C71.7992 16.6531 71.3638 16.1633 71.0191 15.619C70.6926 15.0748 70.5293 14.4308 70.5293 13.6871C70.5293 12.8707 70.738 12.1995 71.1552 11.6735C71.5724 11.1293 72.1166 10.7211 72.7878 10.449C73.4772 10.1587 74.2119 10.0136 74.9919 10.0136Z" fill="#1F173A"/>
<path d="M85.605 3.45578C86.2581 3.45578 86.7932 3.63719 87.2105 4C87.6277 4.36281 87.8363 4.84354 87.8363 5.44218C87.8363 6.04082 87.6277 6.52154 87.2105 6.88436C86.7932 7.24717 86.2581 7.42857 85.605 7.42857C84.9519 7.42857 84.4168 7.24717 83.9996 6.88436C83.5823 6.52154 83.3737 6.04082 83.3737 5.44218C83.3737 4.84354 83.5823 4.36281 83.9996 4C84.4168 3.63719 84.9519 3.45578 85.605 3.45578ZM87.5098 10.0952V21.932C87.5098 22.6939 87.6458 23.2109 87.9179 23.483C88.2082 23.7551 88.6889 23.8912 89.3601 23.8912V24.4626C89.0336 24.4444 88.5347 24.4263 87.8635 24.4082C87.1923 24.3719 86.512 24.3537 85.8227 24.3537C85.1515 24.3537 84.4712 24.3719 83.7819 24.4082C83.0925 24.4263 82.5755 24.4444 82.2309 24.4626V23.8912C82.9021 23.8912 83.3737 23.7551 83.6458 23.483C83.9361 23.2109 84.0812 22.6939 84.0812 21.932V13.3878C84.0812 12.5533 83.9451 11.9456 83.673 11.5646C83.4191 11.1655 82.9383 10.966 82.2309 10.966V10.3946C82.8114 10.449 83.3737 10.4762 83.9179 10.4762C84.5891 10.4762 85.2241 10.449 85.8227 10.3946C86.4395 10.322 87.0018 10.2222 87.5098 10.0952Z" fill="#1F173A"/>
<path d="M95.717 3.15646V21.932C95.717 22.6939 95.8531 23.2109 96.1252 23.483C96.4155 23.7551 96.8962 23.8912 97.5674 23.8912V24.4626C97.2409 24.4444 96.742 24.4263 96.0708 24.4082C95.4177 24.3719 94.7465 24.3537 94.0572 24.3537C93.386 24.3537 92.6966 24.3719 91.9892 24.4082C91.2998 24.4263 90.7828 24.4444 90.4381 24.4626V23.8912C91.1093 23.8912 91.581 23.7551 91.8531 23.483C92.1433 23.2109 92.2885 22.6939 92.2885 21.932V6.42177C92.2885 5.60544 92.1615 5.0068 91.9075 4.62585C91.6536 4.22676 91.1638 4.02721 90.4381 4.02721V3.45578C91.0186 3.51021 91.581 3.53742 92.1252 3.53742C92.8146 3.53742 93.4585 3.51021 94.0572 3.45578C94.6558 3.38322 95.2091 3.28345 95.717 3.15646Z" fill="#1F173A"/>
<path d="M102.621 24.6531C101.841 24.6531 101.179 24.5079 100.635 24.2177C100.091 23.9093 99.6826 23.5011 99.4105 22.9932C99.1384 22.4671 99.0023 21.8866 99.0023 21.2517C99.0023 20.4717 99.1837 19.8367 99.5465 19.3469C99.9094 18.839 100.372 18.4399 100.934 18.1497C101.515 17.8413 102.123 17.5873 102.757 17.3878C103.392 17.1701 103.991 16.9705 104.553 16.7891C105.116 16.5896 105.578 16.3628 105.941 16.1088C106.304 15.8549 106.485 15.5193 106.485 15.102V13.1156C106.485 12.5351 106.395 12.0635 106.213 11.7007C106.05 11.3197 105.796 11.0386 105.451 10.8571C105.125 10.6576 104.708 10.5578 104.2 10.5578C103.819 10.5578 103.42 10.6122 103.002 10.7211C102.585 10.8299 102.24 11.0386 101.968 11.3469C102.44 11.4739 102.803 11.7098 103.057 12.0544C103.329 12.3991 103.465 12.8163 103.465 13.3061C103.465 13.8685 103.274 14.3129 102.893 14.6395C102.531 14.9478 102.068 15.102 101.506 15.102C100.907 15.102 100.454 14.9116 100.145 14.5306C99.8368 14.1497 99.6826 13.7052 99.6826 13.1973C99.6826 12.6893 99.8096 12.2721 100.064 11.9456C100.318 11.6009 100.671 11.2925 101.125 11.0204C101.578 10.712 102.159 10.4671 102.866 10.2857C103.574 10.1043 104.345 10.0136 105.179 10.0136C105.977 10.0136 106.685 10.1043 107.302 10.2857C107.918 10.449 108.445 10.7483 108.88 11.1837C109.315 11.6009 109.596 12.1179 109.723 12.7347C109.85 13.3515 109.914 14.1043 109.914 14.9932V22.449C109.914 22.9025 109.968 23.229 110.077 23.4286C110.186 23.61 110.358 23.7007 110.594 23.7007C110.776 23.7007 110.948 23.6553 111.111 23.5646C111.274 23.4739 111.456 23.3469 111.655 23.1837L111.955 23.6463C111.556 23.9546 111.138 24.1995 110.703 24.381C110.268 24.5624 109.742 24.6531 109.125 24.6531C108.49 24.6531 107.982 24.5624 107.601 24.381C107.238 24.1995 106.966 23.9365 106.785 23.5918C106.621 23.2472 106.531 22.839 106.513 22.3673C106.077 23.093 105.542 23.6553 104.907 24.0544C104.272 24.4535 103.51 24.6531 102.621 24.6531ZM104.254 23.1293C104.689 23.1293 105.088 23.0113 105.451 22.7755C105.832 22.5397 106.177 22.1859 106.485 21.7143V16.2177C106.304 16.4898 106.041 16.7347 105.696 16.9524C105.37 17.1701 105.016 17.3878 104.635 17.6054C104.254 17.8231 103.891 18.0771 103.547 18.3673C103.22 18.6395 102.939 18.9841 102.703 19.4014C102.485 19.8005 102.376 20.3175 102.376 20.9524C102.376 21.6599 102.549 22.2041 102.893 22.585C103.238 22.9478 103.692 23.1293 104.254 23.1293Z" fill="#1F173A"/>
<path d="M122.506 10.0136C123.267 10.0136 123.875 10.1134 124.329 10.3129C124.8 10.5125 125.181 10.7664 125.472 11.0748C125.798 11.4195 126.025 11.8639 126.152 12.4082C126.297 12.9524 126.369 13.6871 126.369 14.6122V21.932C126.369 22.6939 126.506 23.2109 126.778 23.483C127.068 23.7551 127.549 23.8912 128.22 23.8912V24.4626C127.893 24.4444 127.385 24.4263 126.696 24.4082C126.025 24.3719 125.372 24.3537 124.737 24.3537C124.066 24.3537 123.413 24.3719 122.778 24.4082C122.143 24.4263 121.671 24.4444 121.363 24.4626V23.8912C121.943 23.8912 122.351 23.7551 122.587 23.483C122.823 23.2109 122.941 22.6939 122.941 21.932V13.6871C122.941 13.1973 122.896 12.7619 122.805 12.381C122.714 11.9819 122.533 11.6735 122.261 11.4558C121.989 11.22 121.598 11.102 121.091 11.102C120.492 11.102 119.957 11.2653 119.485 11.5918C119.032 11.9184 118.669 12.3719 118.397 12.9524C118.143 13.5147 118.016 14.1497 118.016 14.8571V21.932C118.016 22.6939 118.134 23.2109 118.369 23.483C118.605 23.7551 119.013 23.8912 119.594 23.8912V24.4626C119.286 24.4444 118.823 24.4263 118.206 24.4082C117.589 24.3719 116.964 24.3537 116.329 24.3537C115.657 24.3537 114.977 24.3719 114.288 24.4082C113.598 24.4263 113.081 24.4444 112.737 24.4626V23.8912C113.408 23.8912 113.88 23.7551 114.152 23.483C114.442 23.2109 114.587 22.6939 114.587 21.932V13.3605C114.587 12.5442 114.451 11.9456 114.179 11.5646C113.925 11.1655 113.444 10.966 112.737 10.966V10.3946C113.317 10.449 113.88 10.4762 114.424 10.4762C115.095 10.4762 115.73 10.449 116.329 10.3946C116.945 10.322 117.508 10.2222 118.016 10.0952V12.8163C118.469 11.7823 119.095 11.0567 119.893 10.6395C120.691 10.2222 121.562 10.0136 122.506 10.0136Z" fill="#1F173A"/>
<path d="M142.326 3.15646V21.4966C142.326 22.3129 142.462 22.9206 142.734 23.3197C143.006 23.7007 143.487 23.8912 144.176 23.8912V24.4626C143.614 24.4082 143.052 24.381 142.489 24.381C141.818 24.381 141.183 24.4082 140.584 24.4626C139.986 24.517 139.423 24.6168 138.897 24.7619V6.42177C138.897 5.60544 138.761 5.0068 138.489 4.62585C138.235 4.22676 137.754 4.02721 137.047 4.02721V3.45578C137.627 3.51021 138.19 3.53742 138.734 3.53742C139.423 3.53742 140.067 3.51021 140.666 3.45578C141.265 3.38322 141.818 3.28345 142.326 3.15646ZM135.822 10.0136C136.621 10.0136 137.337 10.1678 137.972 10.4762C138.607 10.7846 139.079 11.3016 139.387 12.0272L139.061 12.2993C138.807 11.7732 138.462 11.3832 138.027 11.1293C137.591 10.8753 137.101 10.7483 136.557 10.7483C135.578 10.7483 134.788 11.3016 134.19 12.4082C133.609 13.4966 133.319 15.1746 133.319 17.4422C133.319 18.966 133.437 20.1995 133.673 21.1429C133.909 22.068 134.244 22.7392 134.68 23.1565C135.133 23.5737 135.668 23.7823 136.285 23.7823C136.938 23.7823 137.528 23.5193 138.054 22.9932C138.58 22.449 138.888 21.678 138.979 20.6803L139.169 21.4422C138.934 22.5488 138.489 23.3923 137.836 23.9728C137.183 24.5533 136.321 24.8435 135.251 24.8435C134.163 24.8435 133.192 24.5805 132.339 24.0544C131.505 23.5102 130.852 22.6939 130.38 21.6054C129.927 20.4989 129.7 19.102 129.7 17.415C129.7 15.7642 129.972 14.3946 130.516 13.3061C131.061 12.1995 131.795 11.3742 132.72 10.8299C133.646 10.2857 134.68 10.0136 135.822 10.0136Z" fill="#1F173A"/>
</svg>
