<svg width="40" height="40" viewBox="0 0 40 40" fill="none" xmlns="http://www.w3.org/2000/svg">
<path fill-rule="evenodd" clip-rule="evenodd" d="M25.4047 7.89602C25.4047 11.5977 28.4099 14.5985 32.117 14.5985C32.5252 14.5964 32.9323 14.5573 33.3334 14.4814V27.7692C33.3334 33.3594 30.0359 36.6667 24.4374 36.6667H12.244C6.63088 36.6667 3.33337 33.3594 3.33337 27.7692V15.5936C3.33337 10.0033 6.63088 6.66675 12.244 6.66675L25.5219 6.66675C25.4431 7.07176 25.4039 7.48344 25.4047 7.89602ZM21.9167 24.8277L26.6797 18.6814V18.6521C27.0875 18.1042 26.9835 17.3316 26.4452 16.9106C26.1847 16.7096 25.8537 16.6225 25.5278 16.6694C25.2019 16.7163 24.9089 16.8931 24.7159 17.1594L20.7003 22.3253L16.1277 18.7253C15.8666 18.5219 15.5345 18.4321 15.2064 18.4762C14.8782 18.5202 14.5817 18.6944 14.3837 18.9594L9.45941 25.3106C9.28632 25.5264 9.19314 25.7952 9.19561 26.0716C9.16703 26.6303 9.51983 27.1378 10.054 27.3064C10.5882 27.475 11.169 27.2623 11.4672 26.7887L15.5854 21.4619L20.158 25.0472C20.4181 25.2569 20.7524 25.352 21.084 25.3106C21.4157 25.2692 21.7163 25.0949 21.9167 24.8277Z" fill="#9F7AEA"/>
<ellipse opacity="0.4" cx="32.5" cy="7.50004" rx="4.16667" ry="4.16667" fill="#9F7AEA"/>
</svg>
